<svg xmlns="http://www.w3.org/2000/svg" xmlns:xlink="http://www.w3.org/1999/xlink" width="500" zoomAndPan="magnify" viewBox="0 0 375 374.999991" height="500" preserveAspectRatio="xMidYMid meet" version="1.0"><defs><g/><clipPath id="3ab9896ba2"><path d="M 43.5 153.535156 L 114.011719 153.535156 L 114.011719 224.050781 L 43.5 224.050781 Z M 43.5 153.535156 " clip-rule="nonzero"/></clipPath><clipPath id="ebe200ec0e"><path d="M 63 153.535156 L 94.511719 153.535156 C 105.28125 153.535156 114.011719 162.265625 114.011719 173.035156 L 114.011719 204.550781 C 114.011719 215.320312 105.28125 224.050781 94.511719 224.050781 L 63 224.050781 C 52.230469 224.050781 43.5 215.320312 43.5 204.550781 L 43.5 173.035156 C 43.5 162.265625 52.230469 153.535156 63 153.535156 " clip-rule="nonzero"/></clipPath><clipPath id="857f0ad509"><path d="M 50.511719 167.652344 L 64 167.652344 L 64 209.652344 L 50.511719 209.652344 Z M 50.511719 167.652344 " clip-rule="nonzero"/></clipPath><clipPath id="b247b47f43"><path d="M 94 167.652344 L 107.117188 167.652344 L 107.117188 209.652344 L 94 209.652344 Z M 94 167.652344 " clip-rule="nonzero"/></clipPath></defs><g clip-path="url(#3ab9896ba2)"><g clip-path="url(#ebe200ec0e)"><path fill="#f67325" d="M 43.5 153.535156 L 114.011719 153.535156 L 114.011719 224.050781 L 43.5 224.050781 Z M 43.5 153.535156 " fill-opacity="1" fill-rule="nonzero"/></g></g><g clip-path="url(#857f0ad509)"><path fill="#ffffff" d="M 62.300781 172.320312 L 63.476562 172.320312 L 63.476562 167.652344 L 62.300781 167.652344 C 58.394531 167.652344 55.230469 170.785156 55.230469 174.652344 L 55.230469 182.820312 C 55.230469 183.554688 54.882812 184.246094 54.289062 184.683594 L 51.460938 186.785156 C 50.894531 187.207031 50.550781 187.855469 50.519531 188.554688 C 50.492188 189.253906 50.78125 189.929688 51.308594 190.394531 L 54.441406 193.152344 C 54.941406 193.59375 55.230469 194.230469 55.230469 194.894531 L 55.230469 202.652344 C 55.230469 206.519531 58.394531 209.652344 62.300781 209.652344 L 63.476562 209.652344 L 63.476562 204.984375 L 62.300781 204.984375 C 61 204.984375 59.945312 203.941406 59.945312 202.652344 L 59.945312 194.894531 C 59.945312 192.894531 59.078125 190.992188 57.570312 189.664062 L 56.59375 188.804688 L 57.117188 188.417969 C 58.894531 187.097656 59.945312 185.023438 59.945312 182.820312 L 59.945312 174.652344 C 59.945312 173.363281 61 172.320312 62.300781 172.320312 Z M 62.300781 172.320312 " fill-opacity="1" fill-rule="evenodd"/></g><g clip-path="url(#b247b47f43)"><path fill="#ffffff" d="M 95.542969 172.320312 L 94.363281 172.320312 L 94.363281 167.652344 L 95.542969 167.652344 C 99.445312 167.652344 102.609375 170.785156 102.609375 174.652344 L 102.609375 182.820312 C 102.609375 183.554688 102.960938 184.246094 103.554688 184.683594 L 106.382812 186.785156 C 106.945312 187.207031 107.292969 187.855469 107.320312 188.554688 C 107.351562 189.253906 107.0625 189.929688 106.53125 190.394531 L 103.402344 193.152344 C 102.898438 193.59375 102.609375 194.230469 102.609375 194.894531 L 102.609375 202.652344 C 102.609375 206.519531 99.445312 209.652344 95.542969 209.652344 L 94.363281 209.652344 L 94.363281 204.984375 L 95.542969 204.984375 C 96.84375 204.984375 97.898438 203.941406 97.898438 202.652344 L 97.898438 194.894531 C 97.898438 192.894531 98.761719 190.992188 100.269531 189.664062 L 101.246094 188.804688 L 100.726562 188.417969 C 98.945312 187.097656 97.898438 185.023438 97.898438 182.820312 L 97.898438 174.652344 C 97.898438 173.363281 96.84375 172.320312 95.542969 172.320312 Z M 95.542969 172.320312 " fill-opacity="1" fill-rule="evenodd"/></g><g fill="#445a67" fill-opacity="1"><g transform="translate(126.685412, 202.631531)"><g><path d="M 13.75 -9.5 C 8.75 -9.5 5.25 -12.75 5.25 -12.75 L 0.5 -5.25 C 0.5 -5.25 5 0.75 16 0.75 C 24.746094 0.75 30.246094 -4.75 30.246094 -10.5 C 30.246094 -21.496094 16.75 -21.496094 16.75 -23.996094 C 16.75 -24.746094 17.5 -25.496094 18.75 -25.496094 C 22.246094 -25.496094 25.246094 -22.746094 25.246094 -22.746094 L 29.996094 -30.246094 C 29.996094 -30.246094 25.496094 -35.746094 16.5 -35.746094 C 7.75 -35.746094 2.25 -30.246094 2.25 -24.496094 C 2.25 -13.5 15.75 -13.5 15.75 -11 C 15.75 -10.25 15 -9.5 13.75 -9.5 Z M 13.75 -9.5 "/></g></g></g><g fill="#445a67" fill-opacity="1"><g transform="translate(157.130574, 202.631531)"><g><path d="M 36.996094 -34.996094 L 21.996094 -34.996094 L 16 -20.996094 L 16 -34.996094 L 3 -34.996094 L 3 0 L 16 0 L 16 -14 L 22.996094 0 L 37.996094 0 L 27.496094 -17.5 Z M 36.996094 -34.996094 "/></g></g></g><g fill="#445a67" fill-opacity="1"><g transform="translate(193.82477, 202.631531)"><g><path d="M 16 -34.996094 L 3 -34.996094 L 3 0 L 16 0 Z M 16 -34.996094 "/></g></g></g><g fill="#445a67" fill-opacity="1"><g transform="translate(212.021825, 202.631531)"><g><path d="M 16 -34.996094 L 3 -34.996094 L 3 0 L 29.496094 0 L 29.496094 -11.5 L 16 -11.5 Z M 16 -34.996094 "/></g></g></g><g fill="#445a67" fill-opacity="1"><g transform="translate(241.717101, 202.631531)"><g><path d="M 16 -34.996094 L 3 -34.996094 L 3 0 L 29.496094 0 L 29.496094 -11.5 L 16 -11.5 Z M 16 -34.996094 "/></g></g></g><g fill="#445a67" fill-opacity="1"><g transform="translate(271.412377, 202.631531)"><g><path d="M 16 -34.996094 L 3 -34.996094 L 3 0 L 16 0 Z M 16 -34.996094 "/></g></g></g><g fill="#445a67" fill-opacity="1"><g transform="translate(289.609431, 202.631531)"><g><path d="M 26.996094 -17.5 C 26.996094 -14 24.496094 -11.5 21.496094 -11.5 C 18.5 -11.5 16 -14 16 -17.5 C 16 -20.996094 18.5 -23.496094 21.496094 -23.496094 C 24.496094 -23.496094 26.996094 -20.996094 26.996094 -17.5 Z M 40.996094 -17.5 C 40.996094 -27.746094 32.996094 -35.746094 21.496094 -35.746094 C 10 -35.746094 2 -27.746094 2 -17.5 C 2 -7.25 10 0.75 21.496094 0.75 C 32.996094 0.75 40.996094 -7.25 40.996094 -17.5 Z M 40.996094 -17.5 "/></g></g></g><g fill="#ffffff" fill-opacity="1"><g transform="translate(66.115482, 200.756588)"><g><path d="M 11.550781 -7.980469 C 7.351562 -7.980469 4.410156 -10.710938 4.410156 -10.710938 L 0.421875 -4.410156 C 0.421875 -4.410156 4.199219 0.628906 13.441406 0.628906 C 20.789062 0.628906 25.410156 -3.988281 25.410156 -8.820312 C 25.410156 -18.058594 14.070312 -18.058594 14.070312 -20.160156 C 14.070312 -20.789062 14.699219 -21.421875 15.75 -21.421875 C 18.691406 -21.421875 21.210938 -19.109375 21.210938 -19.109375 L 25.199219 -25.410156 C 25.199219 -25.410156 21.421875 -30.03125 13.859375 -30.03125 C 6.511719 -30.03125 1.890625 -25.410156 1.890625 -20.578125 C 1.890625 -11.339844 13.230469 -11.339844 13.230469 -9.238281 C 13.230469 -8.609375 12.601562 -7.980469 11.550781 -7.980469 Z M 11.550781 -7.980469 "/></g></g></g></svg>