<svg version="1.1" id="Layer_1" xmlns="http://www.w3.org/2000/svg" xmlns:xlink="http://www.w3.org/1999/xlink" x="0px" y="0px"
	 width="100%" viewBox="0 0 309 309" enable-background="new 0 0 309 309" xml:space="preserve">
<path fill="#000000" opacity="1.000000" stroke="none" 
	d="
M310.000000,76.000000 
	C310.000000,154.333328 310.000000,232.166672 310.000000,310.000000 
	C207.000000,310.000000 104.000000,310.000000 1.000000,310.000000 
	C1.000000,207.000000 1.000000,104.000000 1.000000,1.000000 
	C104.000000,1.000000 207.000000,1.000000 310.000000,1.000000 
	C310.000000,25.833334 310.000000,50.666668 310.000000,76.000000 
M93.089600,3.027687 
	C90.925270,3.019097 88.694130,2.695144 86.624535,3.133657 
	C85.574303,3.356183 84.815346,4.953368 82.999756,5.991439 
	C74.465012,4.417163 66.561661,7.974553 58.350574,9.030441 
	C58.026596,9.072104 57.537056,9.102410 57.422165,9.305944 
	C55.020741,13.560107 49.951862,13.561285 46.510921,16.161404 
	C45.250015,17.114201 43.473488,17.454573 42.360558,18.521269 
	C37.280834,23.389965 32.224609,28.297539 27.430079,33.442860 
	C25.302244,35.726379 23.787601,38.588276 22.044195,41.220470 
	C20.951292,42.870537 19.950634,44.581707 18.908590,46.265465 
	C17.894920,48.124374 16.989859,50.161907 16.388014,52.285378 
	C14.853937,57.698017 12.223140,63.142128 12.192648,68.585754 
	C11.881821,124.076492 12.000874,179.569656 12.018144,235.062134 
	C12.018498,236.203156 11.864044,238.089127 12.417802,238.368958 
	C17.529160,240.951782 13.285543,247.373444 17.814312,250.633774 
	C19.976603,252.190430 19.310896,257.798431 21.470472,259.212006 
	C27.299196,263.027252 28.674820,269.789185 33.140438,274.303192 
	C35.479351,276.667480 37.860558,279.152130 40.664219,280.855743 
	C44.683594,283.298065 49.137566,285.015717 53.340549,287.170441 
	C54.811687,287.924652 55.963051,289.504211 57.478996,289.931549 
	C61.967327,291.196686 66.565109,292.073212 71.117455,293.113220 
	C71.265526,293.147003 71.474403,293.283600 71.505074,293.408966 
	C72.515846,297.539551 75.867088,295.944366 78.277596,295.949493 
	C116.105621,296.030212 153.933884,296.000671 191.762085,295.997101 
	C200.760864,295.996246 209.796417,296.503235 218.747849,295.852325 
	C227.312210,295.229523 235.957321,298.090759 244.662399,293.484283 
	C247.877014,291.783173 252.208206,290.387756 255.966583,288.820129 
	C258.759796,287.655090 261.639465,286.500763 264.317963,284.580353 
	C266.476501,283.032715 269.330444,282.052521 271.210205,279.594482 
	C271.705353,278.947021 272.992340,278.941620 273.873260,278.546631 
	C279.046051,276.227325 283.350739,273.076630 285.068481,267.267975 
	C285.472687,265.901123 286.206055,263.787506 287.153778,263.563263 
	C293.033356,262.171906 292.794312,256.077148 295.667175,252.477142 
	C298.041321,249.502136 297.999329,244.602310 299.045776,240.559967 
	C299.165649,240.096878 299.360443,239.642075 299.588348,239.220093 
	C300.374573,237.764313 301.891418,236.326294 301.894592,234.878815 
	C302.016388,179.219940 302.006989,123.560768 301.967255,67.901672 
	C301.966248,66.495537 301.573700,65.041534 301.119293,63.692204 
	C299.132385,57.792374 297.055176,51.922955 295.470703,47.365547 
	C286.513916,32.727917 275.572205,21.310528 261.855804,12.926759 
	C252.041428,7.710147 241.453293,4.785949 230.006561,5.073849 
	C229.236145,4.383945 228.509567,3.170496 227.687134,3.101634 
	C225.150009,2.889198 222.576294,3.113678 219.087173,3.024209 
	C208.785583,3.016163 198.483978,2.988599 188.182419,3.003716 
	C156.782715,3.049793 125.383049,3.112321 93.089600,3.027687 
z"/>
<path fill="#F67427" opacity="1.000000" stroke="none" 
	d="
M230.075272,5.929070 
	C241.453293,4.785949 252.041428,7.710147 261.855804,12.926759 
	C275.572205,21.310528 286.513916,32.727917 295.470703,47.365547 
	C297.055176,51.922955 299.132385,57.792374 301.119293,63.692204 
	C301.573700,65.041534 301.966248,66.495537 301.967255,67.901672 
	C302.006989,123.560768 302.016388,179.219940 301.894592,234.878815 
	C301.891418,236.326294 300.374573,237.764313 299.588348,239.220093 
	C299.360443,239.642075 299.165649,240.096878 299.045776,240.559967 
	C297.999329,244.602310 298.041321,249.502136 295.667175,252.477142 
	C292.794312,256.077148 293.033356,262.171906 287.153778,263.563263 
	C286.206055,263.787506 285.472687,265.901123 285.068481,267.267975 
	C283.350739,273.076630 279.046051,276.227325 273.873260,278.546631 
	C272.992340,278.941620 271.705353,278.947021 271.210205,279.594482 
	C269.330444,282.052521 266.476501,283.032715 264.317963,284.580353 
	C261.639465,286.500763 258.759796,287.655090 255.966583,288.820129 
	C252.208206,290.387756 247.877014,291.783173 244.662399,293.484283 
	C235.957321,298.090759 227.312210,295.229523 218.747849,295.852325 
	C209.796417,296.503235 200.760864,295.996246 191.762085,295.997101 
	C153.933884,296.000671 116.105621,296.030212 78.277596,295.949493 
	C75.867088,295.944366 72.515846,297.539551 71.505074,293.408966 
	C71.474403,293.283600 71.265526,293.147003 71.117455,293.113220 
	C66.565109,292.073212 61.967327,291.196686 57.478996,289.931549 
	C55.963051,289.504211 54.811687,287.924652 53.340549,287.170441 
	C49.137566,285.015717 44.683594,283.298065 40.664219,280.855743 
	C37.860558,279.152130 35.479351,276.667480 33.140438,274.303192 
	C28.674820,269.789185 27.299196,263.027252 21.470472,259.212006 
	C19.310896,257.798431 19.976603,252.190430 17.814312,250.633774 
	C13.285543,247.373444 17.529160,240.951782 12.417802,238.368958 
	C11.864044,238.089127 12.018498,236.203156 12.018144,235.062134 
	C12.000874,179.569656 11.881821,124.076492 12.192648,68.585754 
	C12.223140,63.142128 14.853937,57.698017 16.388014,52.285378 
	C16.989859,50.161907 17.894920,48.124374 18.908590,46.265465 
	C19.950634,44.581707 20.951292,42.870537 22.044195,41.220470 
	C23.787601,38.588276 25.302244,35.726379 27.430079,33.442860 
	C32.224609,28.297539 37.280834,23.389965 42.360558,18.521269 
	C43.473488,17.454573 45.250015,17.114201 46.510921,16.161404 
	C49.951862,13.561285 55.020741,13.560107 57.422165,9.305944 
	C57.537056,9.102410 58.026596,9.072104 58.350574,9.030441 
	C66.561661,7.974553 74.465012,4.417163 83.917816,5.978444 
	C87.579582,5.999857 90.323288,6.034266 93.250969,6.396029 
	C94.970123,7.146682 96.504669,7.936971 98.040588,7.939644 
	C137.264725,8.007911 176.489075,8.018474 215.713058,7.912488 
	C217.454666,7.907782 219.193054,6.710463 221.390137,6.047167 
	C224.589966,5.993475 227.332611,5.961272 230.075272,5.929070 
M71.540878,148.008438 
	C72.157402,147.162323 72.773926,146.316208 73.593399,145.333405 
	C73.788582,145.185333 73.976784,145.029129 74.680756,144.964386 
	C75.092278,144.288956 75.503799,143.613510 76.316772,142.377731 
	C77.348808,140.296021 78.380836,138.214325 79.728073,136.293716 
	C79.728073,136.293716 80.066841,136.190460 80.673904,135.836441 
	C81.026154,133.225647 81.378403,130.614838 81.832527,127.070724 
	C81.887901,116.751480 82.080406,106.430244 81.930893,96.113968 
	C81.871407,92.009544 82.694862,88.562759 86.756233,86.091492 
	C88.911369,85.930305 91.204842,86.168015 93.178505,85.483559 
	C94.799965,84.921265 97.090012,83.395920 97.257889,82.066811 
	C97.794449,77.818710 97.634804,73.454247 97.381279,69.156090 
	C97.322746,68.163841 95.797150,66.428497 94.985489,66.450760 
	C91.007324,66.559906 87.042290,67.147270 82.493126,67.311401 
	C82.074486,67.345581 81.655838,67.379768 80.619293,67.210884 
	C79.875732,67.849792 79.132179,68.488701 77.874962,69.346626 
	C77.543564,69.516022 77.212158,69.685425 76.148491,69.721436 
	C68.742371,72.559219 64.343895,78.708961 63.506687,85.768852 
	C62.122612,97.440338 62.425861,109.328697 62.322285,121.128342 
	C62.268543,127.250938 60.591438,132.159882 55.056744,135.419281 
	C52.779728,136.760223 50.712467,138.499954 48.690784,140.223663 
	C43.127888,144.966583 42.794979,152.970078 47.944328,158.231232 
	C50.387627,160.727585 52.742592,163.422546 55.574863,165.401779 
	C60.853638,169.090637 62.233635,174.267471 62.251442,180.172256 
	C62.278065,189.000610 61.969170,197.842361 62.365219,206.653137 
	C62.661732,213.249527 63.506676,219.958572 69.999275,223.983597 
	C69.999275,223.983597 70.071877,223.942154 69.958084,224.480957 
	C70.596283,224.930450 71.234474,225.379944 72.258774,226.125717 
	C72.980164,226.782959 73.701553,227.440201 74.315483,228.609085 
	C76.535072,229.622177 78.754662,230.635269 81.887039,231.838287 
	C85.910736,231.869781 89.934425,231.901291 94.635597,232.145447 
	C95.085037,232.017212 95.534470,231.888977 96.590591,231.364059 
	C96.910866,228.125153 97.470398,224.888718 97.504082,221.646835 
	C97.586998,213.667038 95.967049,212.471542 87.281212,213.884628 
	C83.274429,211.808029 81.890648,208.468445 81.946205,204.039032 
	C82.067261,194.387558 81.893585,184.732391 82.226387,174.408569 
	C83.068283,166.168701 78.153107,156.344864 71.286293,152.951889 
	C70.848579,152.302048 70.410858,151.652222 70.410088,150.504776 
	C70.588104,149.652985 70.766121,148.801208 70.995232,148.001953 
	C70.995232,148.001953 70.952179,147.944565 71.540878,148.008438 
M219.271866,75.504326 
	C219.292740,77.168915 218.830154,79.052856 219.460052,80.441109 
	C220.203720,82.080101 221.851501,84.447517 223.177429,84.493881 
	C230.337372,84.744194 232.989288,89.452797 232.921738,95.823830 
	C232.836990,103.814430 232.872192,111.807182 232.939651,119.798302 
	C233.025925,130.019241 234.542084,139.723145 242.942978,146.913712 
	C245.324722,148.952347 245.206528,151.395081 243.012146,153.399658 
	C234.670868,161.019440 232.895920,170.919800 232.924057,181.509232 
	C232.943985,189.001343 232.996033,196.494400 232.905701,203.985489 
	C232.821808,210.943619 230.480103,213.205383 223.569687,214.454285 
	C221.994431,214.738968 219.497238,216.947601 219.576508,218.125931 
	C219.892273,222.819778 217.023270,228.058456 221.454498,232.175079 
	C221.558243,232.271454 221.780151,232.294418 221.936127,232.272980 
	C227.266052,231.540237 233.200592,232.042664 237.800079,229.803589 
	C248.057648,224.810104 252.709442,215.637817 252.692810,204.183304 
	C252.679520,195.026321 252.783051,185.868576 252.693329,176.712570 
	C252.649155,172.204636 254.331604,168.723557 257.803009,165.887802 
	C261.017456,163.261917 264.192688,160.555466 267.126251,157.625244 
	C272.571228,152.186493 272.244446,146.224091 266.365875,141.284897 
	C263.951019,139.255920 261.430908,137.341568 258.866852,135.503189 
	C254.647797,132.478241 252.478363,128.669327 252.617661,123.252815 
	C252.878677,113.103508 252.751511,102.942169 252.673676,92.786697 
	C252.579422,80.494118 240.628571,65.504257 227.197693,66.520767 
	C219.324493,67.116646 219.275574,66.470245 219.271866,75.504326 
M157.639313,78.437912 
	C148.864563,78.187294 140.915558,81.235161 133.469604,85.303116 
	C124.572350,90.163986 117.417427,97.428040 115.058182,107.321587 
	C110.834770,125.032524 116.154846,138.566895 132.651703,148.341019 
	C139.167877,152.201752 146.528641,154.613235 153.335312,158.023010 
	C155.191971,158.953079 156.433395,161.111313 157.957169,162.705902 
	C155.893509,163.687225 153.895477,165.320145 151.754715,165.535751 
	C143.024643,166.414948 135.498413,162.650970 128.498047,158.122635 
	C124.992584,155.855057 122.991425,156.681976 121.090721,159.619934 
	C117.844025,164.638428 114.613861,169.672470 111.551811,174.804428 
	C107.202766,182.093399 107.185089,182.459839 113.953392,187.775085 
	C133.127945,202.833115 165.684006,208.065170 188.361526,195.678894 
	C198.227554,190.290161 206.314590,182.233231 208.217422,170.657532 
	C211.075806,153.268784 205.934937,142.068985 190.409836,132.342529 
	C184.422318,128.591339 177.442139,126.458557 171.121628,123.187653 
	C168.689529,121.929024 164.839401,119.197990 165.097473,117.758560 
	C165.816132,113.750267 169.987762,114.384781 172.932449,115.182266 
	C177.657898,116.462036 182.575378,117.793182 186.711670,120.271172 
	C190.742172,122.685783 192.971375,122.139183 195.244720,118.469421 
	C198.480942,113.245316 201.895782,108.131676 205.120407,102.900627 
	C208.588531,97.274559 208.540192,96.625458 203.178970,92.256081 
	C190.200912,81.679047 175.253052,77.257935 157.639313,78.437912 
z"/>
<path fill="#FF6600" opacity="1.000000" stroke="none" 
	d="
M93.983360,3.168447 
	C125.383049,3.112321 156.782715,3.049793 188.182419,3.003716 
	C198.483978,2.988599 208.785583,3.016163 219.551483,3.440982 
	C220.021408,4.547031 220.027039,5.236308 219.560852,5.952168 
	C177.381805,5.961025 135.674591,5.943298 93.971428,5.580946 
	C93.978104,4.547029 93.980728,3.857738 93.983360,3.168447 
z"/>
<path fill="#FF7F00" opacity="1.000000" stroke="none" 
	d="
M220.032654,5.925584 
	C220.027039,5.236308 220.021408,4.547031 220.016296,3.513100 
	C222.576294,3.113678 225.150009,2.889198 227.687134,3.101634 
	C228.509567,3.170496 229.236145,4.383945 230.040924,5.501459 
	C227.332611,5.961272 224.589966,5.993475 221.165085,6.013515 
	C220.482864,6.001351 220.032654,5.925584 220.032654,5.925584 
z"/>
<path fill="#FF7F00" opacity="1.000000" stroke="none" 
	d="
M93.536484,3.098067 
	C93.980728,3.857738 93.978104,4.547029 93.746910,5.619425 
	C93.518341,6.002530 93.067001,6.068673 93.067001,6.068673 
	C90.323288,6.034266 87.579582,5.999857 84.380295,5.947272 
	C84.815346,4.953368 85.574303,3.356183 86.624535,3.133657 
	C88.694130,2.695144 90.925270,3.019097 93.536484,3.098067 
z"/>
<path fill="#F0E6E0" opacity="1.000000" stroke="none" 
	d="
M219.272095,75.043121 
	C219.275574,66.470245 219.324493,67.116646 227.197693,66.520767 
	C240.628571,65.504257 252.579422,80.494118 252.673676,92.786697 
	C252.751511,102.942169 252.878677,113.103508 252.617661,123.252815 
	C252.478363,128.669327 254.647797,132.478241 258.866852,135.503189 
	C261.430908,137.341568 263.951019,139.255920 266.365875,141.284897 
	C272.244446,146.224091 272.571228,152.186493 267.126251,157.625244 
	C264.192688,160.555466 261.017456,163.261917 257.803009,165.887802 
	C254.331604,168.723557 252.649155,172.204636 252.693329,176.712570 
	C252.783051,185.868576 252.679520,195.026321 252.692810,204.183304 
	C252.709442,215.637817 248.057648,224.810104 237.800079,229.803589 
	C233.200592,232.042664 227.266052,231.540237 221.936127,232.272980 
	C221.780151,232.294418 221.558243,232.271454 221.454498,232.175079 
	C217.023270,228.058456 219.892273,222.819778 219.576508,218.125931 
	C219.497238,216.947601 221.994431,214.738968 223.569687,214.454285 
	C230.480103,213.205383 232.821808,210.943619 232.905701,203.985489 
	C232.996033,196.494400 232.943985,189.001343 232.924057,181.509232 
	C232.895920,170.919800 234.670868,161.019440 243.012146,153.399658 
	C245.206528,151.395081 245.324722,148.952347 242.942978,146.913712 
	C234.542084,139.723145 233.025925,130.019241 232.939651,119.798302 
	C232.872192,111.807182 232.836990,103.814430 232.921738,95.823830 
	C232.989288,89.452797 230.337372,84.744194 223.177429,84.493881 
	C221.851501,84.447517 220.203720,82.080101 219.460052,80.441109 
	C218.830154,79.052856 219.292740,77.168915 219.272095,75.043121 
z"/>
<path fill="#EFEEEE" opacity="1.000000" stroke="none" 
	d="
M81.237198,67.413956 
	C81.655838,67.379768 82.074486,67.345581 83.129532,67.623436 
	C86.239853,67.996040 88.746292,67.840897 91.174164,68.206909 
	C92.414452,68.393890 94.458115,69.444611 94.516525,70.226158 
	C94.796913,73.978371 95.138214,77.944359 94.150063,81.467628 
	C93.743843,82.916000 90.025787,83.390892 87.866005,84.417580 
	C87.160965,84.752724 86.619904,85.432793 86.003845,85.955109 
	C82.694862,88.562759 81.871407,92.009544 81.930893,96.113968 
	C82.080406,106.430244 81.887901,116.751480 81.547134,127.729599 
	C81.114662,129.170807 80.967583,129.953156 80.553040,130.925568 
	C79.994675,132.787964 79.703773,134.460281 79.412872,136.132614 
	C78.380836,138.214325 77.348808,140.296021 75.749969,142.718872 
	C74.841431,143.661591 74.499710,144.263184 74.157990,144.864777 
	C73.976784,145.029129 73.788582,145.185333 73.085770,145.414963 
	C72.036156,146.312546 71.494171,147.128555 70.952179,147.944565 
	C70.952179,147.944565 70.995232,148.001953 70.627167,147.921234 
	C69.607208,148.431549 68.955322,149.022583 68.303429,149.613602 
	C68.860001,150.076523 69.416573,150.539459 69.973145,151.002380 
	C70.410858,151.652222 70.848579,152.302048 71.393936,153.522583 
	C73.774818,158.063660 76.048058,162.034042 78.293892,166.344910 
	C78.920708,168.077347 79.574928,169.469299 80.184006,171.229385 
	C80.706032,172.757919 81.273193,173.918335 81.840355,175.078735 
	C81.893585,184.732391 82.067261,194.387558 81.946205,204.039032 
	C81.890648,208.468445 83.274429,211.808029 87.707191,214.351318 
	C89.470337,215.129410 90.807495,215.440811 92.336929,216.100281 
	C93.005508,221.609848 93.481812,226.771317 93.958122,231.932785 
	C89.934425,231.901291 85.910736,231.869781 81.258186,231.462769 
	C78.560532,230.090637 76.491730,229.094040 74.422943,228.097443 
	C73.701553,227.440201 72.980164,226.782959 72.016617,225.614380 
	C71.206932,224.716064 70.639404,224.329102 70.071877,223.942154 
	C70.071877,223.942154 69.999275,223.983597 70.050735,223.589813 
	C66.810631,217.258759 63.677929,211.468536 64.189827,204.132080 
	C64.779907,195.675125 64.154839,187.140579 64.386642,178.648697 
	C64.524323,173.605026 62.736317,169.525726 59.388626,166.044479 
	C57.211514,163.780487 54.882507,161.618378 52.393963,159.706940 
	C46.559925,155.225876 43.185814,146.024490 52.178242,140.860107 
	C54.461857,139.548615 56.345707,137.556274 58.480095,135.966537 
	C62.947151,132.639389 65.028862,128.377548 64.892296,122.670219 
	C64.641258,112.178436 64.672501,101.672630 64.925209,91.180840 
	C64.993927,88.327950 65.655922,85.118179 67.132446,82.749725 
	C69.971527,78.195610 73.587189,74.125610 76.880760,69.854820 
	C77.212158,69.685425 77.543564,69.516022 78.440361,69.365234 
	C79.749573,68.727211 80.493385,68.070580 81.237198,67.413956 
z"/>
<path fill="#FCCBAD" opacity="1.000000" stroke="none" 
	d="
M158.120712,78.426636 
	C175.253052,77.257935 190.200912,81.679047 203.178970,92.256081 
	C208.540192,96.625458 208.588531,97.274559 205.120407,102.900627 
	C201.895782,108.131676 198.480942,113.245316 195.244720,118.469421 
	C192.971375,122.139183 190.742172,122.685783 186.711670,120.271172 
	C182.575378,117.793182 177.657898,116.462036 172.932449,115.182266 
	C169.987762,114.384781 165.816132,113.750267 165.097473,117.758560 
	C164.839401,119.197990 168.689529,121.929024 171.121628,123.187653 
	C177.442139,126.458557 184.422318,128.591339 190.409836,132.342529 
	C205.934937,142.068985 211.075806,153.268784 208.217422,170.657532 
	C206.314590,182.233231 198.227554,190.290161 188.361526,195.678894 
	C165.684006,208.065170 133.127945,202.833115 113.953392,187.775085 
	C107.185089,182.459839 107.202766,182.093399 111.551811,174.804428 
	C114.613861,169.672470 117.844025,164.638428 121.090721,159.619934 
	C122.991425,156.681976 124.992584,155.855057 128.498047,158.122635 
	C135.498413,162.650970 143.024643,166.414948 151.754715,165.535751 
	C153.895477,165.320145 155.893509,163.687225 157.957169,162.705902 
	C156.433395,161.111313 155.191971,158.953079 153.335312,158.023010 
	C146.528641,154.613235 139.167877,152.201752 132.651703,148.341019 
	C116.154846,138.566895 110.834770,125.032524 115.058182,107.321587 
	C117.417427,97.428040 124.572350,90.163986 133.469604,85.303116 
	C140.915558,81.235161 148.864563,78.187294 158.120712,78.426636 
M118.471924,128.875565 
	C120.942337,132.741425 122.602478,137.716049 126.054482,140.238693 
	C132.909241,145.247986 140.731369,148.942017 148.194229,153.107010 
	C151.780457,155.108505 155.808563,156.496353 158.996933,158.982407 
	C162.178848,161.463440 161.517471,165.495132 157.769699,166.894897 
	C154.664566,168.054672 150.808701,168.993881 147.774780,168.188171 
	C141.138214,166.425690 134.744446,163.653427 128.391022,160.964050 
	C125.583717,159.775726 123.760765,159.900757 122.116661,162.608154 
	C119.448898,167.001221 116.603287,171.286423 113.826218,175.612961 
	C110.300652,181.105652 110.415161,182.219681 115.878120,186.101288 
	C129.076141,195.478912 143.566742,199.937790 160.012543,199.741302 
	C172.534363,199.591705 183.867050,197.219879 193.329987,189.090851 
	C209.051102,175.585785 212.228806,156.869888 196.932846,140.504181 
	C189.103088,132.126816 178.132782,129.280746 168.085968,124.850380 
	C164.569992,123.299911 161.257111,121.325569 162.324585,116.799057 
	C163.308868,112.625389 166.834991,111.864594 170.587021,112.142914 
	C171.896149,112.240021 173.234482,112.549248 174.463623,113.014709 
	C179.982285,115.104584 185.466476,117.285553 191.295746,119.563667 
	C194.561752,114.375343 197.955933,109.100006 201.230652,103.751511 
	C205.261139,97.168610 205.165878,96.052818 198.731354,91.881088 
	C191.372116,87.109848 183.472412,83.896255 174.667313,82.087341 
	C155.111176,78.069717 138.088028,81.792892 124.071449,96.283188 
	C116.438362,104.174263 112.914116,118.692482 118.471924,128.875565 
z"/>
<path fill="#F2BB9A" opacity="1.000000" stroke="none" 
	d="
M76.514626,69.788132 
	C73.587189,74.125610 69.971527,78.195610 67.132446,82.749725 
	C65.655922,85.118179 64.993927,88.327950 64.925209,91.180840 
	C64.672501,101.672630 64.641258,112.178436 64.892296,122.670219 
	C65.028862,128.377548 62.947151,132.639389 58.480095,135.966537 
	C56.345707,137.556274 54.461857,139.548615 52.178242,140.860107 
	C43.185814,146.024490 46.559925,155.225876 52.393963,159.706940 
	C54.882507,161.618378 57.211514,163.780487 59.388626,166.044479 
	C62.736317,169.525726 64.524323,173.605026 64.386642,178.648697 
	C64.154839,187.140579 64.779907,195.675125 64.189827,204.132080 
	C63.677929,211.468536 66.810631,217.258759 70.083252,223.562286 
	C63.506676,219.958572 62.661732,213.249527 62.365219,206.653137 
	C61.969170,197.842361 62.278065,189.000610 62.251442,180.172256 
	C62.233635,174.267471 60.853638,169.090637 55.574863,165.401779 
	C52.742592,163.422546 50.387627,160.727585 47.944328,158.231232 
	C42.794979,152.970078 43.127888,144.966583 48.690784,140.223663 
	C50.712467,138.499954 52.779728,136.760223 55.056744,135.419281 
	C60.591438,132.159882 62.268543,127.250938 62.322285,121.128342 
	C62.425861,109.328697 62.122612,97.440338 63.506687,85.768852 
	C64.343895,78.708961 68.742371,72.559219 76.514626,69.788132 
z"/>
<path fill="#F17B3A" opacity="1.000000" stroke="none" 
	d="
M93.250969,6.396029 
	C93.067001,6.068673 93.518341,6.002530 93.742859,5.964051 
	C135.674591,5.943298 177.381805,5.961025 219.560837,5.952168 
	C220.032654,5.925584 220.482864,6.001351 220.707916,6.035004 
	C219.193054,6.710463 217.454666,7.907782 215.713058,7.912488 
	C176.489075,8.018474 137.264725,8.007911 98.040588,7.939644 
	C96.504669,7.936971 94.970123,7.146682 93.250969,6.396029 
z"/>
<path fill="#F3AF87" opacity="1.000000" stroke="none" 
	d="
M86.380043,86.023300 
	C86.619904,85.432793 87.160965,84.752724 87.866005,84.417580 
	C90.025787,83.390892 93.743843,82.916000 94.150063,81.467628 
	C95.138214,77.944359 94.796913,73.978371 94.516525,70.226158 
	C94.458115,69.444611 92.414452,68.393890 91.174164,68.206909 
	C88.746292,67.840897 86.239853,67.996040 83.419266,67.750549 
	C87.042290,67.147270 91.007324,66.559906 94.985489,66.450760 
	C95.797150,66.428497 97.322746,68.163841 97.381279,69.156090 
	C97.634804,73.454247 97.794449,77.818710 97.257889,82.066811 
	C97.090012,83.395920 94.799965,84.921265 93.178505,85.483559 
	C91.204842,86.168015 88.911369,85.930305 86.380043,86.023300 
z"/>
<path fill="#F2BB9A" opacity="1.000000" stroke="none" 
	d="
M78.321289,166.004410 
	C76.048058,162.034042 73.774818,158.063660 71.600578,153.731110 
	C78.153107,156.344864 83.068283,166.168701 82.033371,174.743652 
	C81.273193,173.918335 80.706032,172.757919 80.312454,170.970703 
	C79.764465,168.897400 79.042877,167.450912 78.321289,166.004410 
z"/>
<path fill="#F2BB9A" opacity="1.000000" stroke="none" 
	d="
M92.144661,215.752197 
	C90.807495,215.440811 89.470337,215.129410 88.037354,214.463577 
	C95.967049,212.471542 97.586998,213.667038 97.504082,221.646835 
	C97.470398,224.888718 96.910866,228.125153 96.289322,231.116623 
	C95.979660,226.949615 96.071701,223.026260 95.924004,219.111938 
	C95.839684,216.877457 95.398010,214.619751 92.144661,215.752197 
z"/>
<path fill="#F2BFA0" opacity="1.000000" stroke="none" 
	d="
M92.336929,216.100281 
	C95.398010,214.619751 95.839684,216.877457 95.924004,219.111938 
	C96.071701,223.026260 95.979660,226.949615 95.985985,231.314972 
	C95.534470,231.888977 95.085037,232.017212 94.296860,232.039124 
	C93.481812,226.771317 93.005508,221.609848 92.336929,216.100281 
z"/>
<path fill="#F2BB9A" opacity="1.000000" stroke="none" 
	d="
M74.369209,228.353271 
	C76.491730,229.094040 78.560532,230.090637 80.801788,231.367798 
	C78.754662,230.635269 76.535072,229.622177 74.369209,228.353271 
z"/>
<path fill="#F3AF87" opacity="1.000000" stroke="none" 
	d="
M80.820503,130.735489 
	C80.967583,129.953156 81.114662,129.170807 81.496193,128.196259 
	C81.378403,130.614838 81.026154,133.225647 80.406998,135.618713 
	C80.366890,133.845825 80.593697,132.290649 80.820503,130.735489 
z"/>
<path fill="#F2BFA0" opacity="1.000000" stroke="none" 
	d="
M80.553040,130.925568 
	C80.593697,132.290649 80.366890,133.845825 80.103470,135.795715 
	C80.066841,136.190460 79.728073,136.293716 79.570473,136.213165 
	C79.703773,134.460281 79.994675,132.787964 80.553040,130.925568 
z"/>
<path fill="#F2BB9A" opacity="1.000000" stroke="none" 
	d="
M70.191620,150.753571 
	C69.416573,150.539459 68.860001,150.076523 68.303429,149.613602 
	C68.955322,149.022583 69.607208,148.431549 70.601624,147.894974 
	C70.766121,148.801208 70.588104,149.652985 70.191620,150.753571 
z"/>
<path fill="#F2BB9A" opacity="1.000000" stroke="none" 
	d="
M71.246536,147.976501 
	C71.494171,147.128555 72.036156,146.312546 72.984299,145.483307 
	C72.773926,146.316208 72.157402,147.162323 71.246536,147.976501 
z"/>
<path fill="#F2BB9A" opacity="1.000000" stroke="none" 
	d="
M80.928246,67.312416 
	C80.493385,68.070580 79.749573,68.727211 78.697189,69.255730 
	C79.132179,68.488701 79.875732,67.849792 80.928246,67.312416 
z"/>
<path fill="#F2BB9A" opacity="1.000000" stroke="none" 
	d="
M74.419373,144.914581 
	C74.499710,144.263184 74.841431,143.661591 75.549240,142.999039 
	C75.503799,143.613510 75.092278,144.288956 74.419373,144.914581 
z"/>
<path fill="#F2BB9A" opacity="1.000000" stroke="none" 
	d="
M70.014984,224.211548 
	C70.639404,224.329102 71.206932,224.716064 71.823563,225.466232 
	C71.234474,225.379944 70.596283,224.930450 70.014984,224.211548 
z"/>
<path fill="#F2BFA0" opacity="1.000000" stroke="none" 
	d="
M78.293900,166.344910 
	C79.042877,167.450912 79.764465,168.897400 80.357597,170.602570 
	C79.574928,169.469299 78.920708,168.077347 78.293900,166.344910 
z"/>
<path fill="#FFFEFE" opacity="1.000000" stroke="none" 
	d="
M118.339592,128.508545 
	C112.914116,118.692482 116.438362,104.174263 124.071449,96.283188 
	C138.088028,81.792892 155.111176,78.069717 174.667313,82.087341 
	C183.472412,83.896255 191.372116,87.109848 198.731354,91.881088 
	C205.165878,96.052818 205.261139,97.168610 201.230652,103.751511 
	C197.955933,109.100006 194.561752,114.375343 191.295746,119.563667 
	C185.466476,117.285553 179.982285,115.104584 174.463623,113.014709 
	C173.234482,112.549248 171.896149,112.240021 170.587021,112.142914 
	C166.834991,111.864594 163.308868,112.625389 162.324585,116.799057 
	C161.257111,121.325569 164.569992,123.299911 168.085968,124.850380 
	C178.132782,129.280746 189.103088,132.126816 196.932846,140.504181 
	C212.228806,156.869888 209.051102,175.585785 193.329987,189.090851 
	C183.867050,197.219879 172.534363,199.591705 160.012543,199.741302 
	C143.566742,199.937790 129.076141,195.478912 115.878120,186.101288 
	C110.415161,182.219681 110.300652,181.105652 113.826218,175.612961 
	C116.603287,171.286423 119.448898,167.001221 122.116661,162.608154 
	C123.760765,159.900757 125.583717,159.775726 128.391022,160.964050 
	C134.744446,163.653427 141.138214,166.425690 147.774780,168.188171 
	C150.808701,168.993881 154.664566,168.054672 157.769699,166.894897 
	C161.517471,165.495132 162.178848,161.463440 158.996933,158.982407 
	C155.808563,156.496353 151.780457,155.108505 148.194229,153.107010 
	C140.731369,148.942017 132.909241,145.247986 126.054482,140.238693 
	C122.602478,137.716049 120.942337,132.741425 118.339592,128.508545 
z"/>
</svg>